<svg width="24" height="24" viewBox="0 0 24 24" fill="none" xmlns="http://www.w3.org/2000/svg">
<g clip-path="url(#clip0_6304_41)">
<path d="M12 5.34375C8.32973 5.34375 5.34375 8.32973 5.34375 12C5.34375 15.6703 8.32973 18.6562 12 18.6562C15.6703 18.6562 18.6562 15.6703 18.6562 12C18.6562 8.32973 15.6703 5.34375 12 5.34375ZM12 17.7187C8.84667 17.7187 6.28125 15.1533 6.28125 12C6.28125 8.84667 8.84667 6.28125 12 6.28125C15.1533 6.28125 17.7188 8.84667 17.7188 12C17.7188 15.1533 15.1533 17.7187 12 17.7187ZM23.7511 0.054747C23.676 0.014854 23.5914 -0.00384362 23.5064 0.000656595C23.4215 0.00515681 23.3393 0.0326854 23.2688 0.0802938C20.9676 1.63518 19.5938 4.22156 19.5938 6.99886V13.081C19.5938 13.7333 19.8478 14.3467 20.3091 14.8079L21.1875 15.6864V22.5937C21.1875 23.3692 21.8183 24 22.5938 24C23.3692 24 24 23.3692 24 22.5937V0.468747C24 0.295356 23.9043 0.136122 23.7511 0.054747ZM23.0625 22.5937C23.0625 22.8522 22.8522 23.0625 22.5938 23.0625C22.3353 23.0625 22.125 22.8522 22.125 22.5937V15.4922C22.125 15.3679 22.0756 15.2487 21.9877 15.1607L20.972 14.145C20.6878 13.8608 20.5312 13.4829 20.5312 13.081V6.99886C20.5312 4.84354 21.4632 2.81789 23.0625 1.42017V22.5937Z" fill="#FC4102"/>
<path d="M10.9246 8.28248C10.823 8.04441 10.5474 7.93383 10.3094 8.03541C9.5321 8.36641 8.86936 8.9188 8.40376 9.62378C7.93816 10.3288 7.69029 11.1551 7.69102 12C7.69102 12.2588 7.90088 12.4688 8.15977 12.4688C8.41866 12.4688 8.62852 12.2588 8.62852 12C8.62795 11.3389 8.82193 10.6922 9.18628 10.1406C9.55063 9.58892 10.0692 9.15667 10.6775 8.89767C10.9156 8.79605 11.0262 8.52061 10.9246 8.28248ZM12 7.69102L11.9763 7.69106C11.7174 7.6928 11.509 7.90406 11.5107 8.16295C11.5125 8.42077 11.722 8.62856 11.9794 8.62856H11.9826L12 8.62852C12.2589 8.62852 12.4688 8.41866 12.4688 8.15977C12.4688 7.90087 12.2589 7.69102 12 7.69102ZM18.498 5.83495C17.6698 4.96233 16.6935 4.2757 15.5964 3.7942C14.4604 3.29564 13.2503 3.04284 12 3.04284C10.5713 3.04284 9.2055 3.36938 7.94072 4.01344C7.71005 4.13091 7.61822 4.41314 7.73569 4.64386C7.8532 4.87448 8.13544 4.96627 8.36616 4.84884C9.49791 4.27256 10.7205 3.98034 12 3.98034C14.2217 3.98034 16.2879 4.86816 17.8179 6.48033C17.8617 6.52655 17.9144 6.56334 17.9729 6.58846C18.0314 6.61358 18.0944 6.62648 18.158 6.62639C18.2781 6.62654 18.3936 6.58042 18.4806 6.49762C18.6684 6.31941 18.6761 6.02273 18.498 5.83495ZM18.953 16.8928C18.7499 16.7323 18.4552 16.7667 18.2946 16.9698C16.7621 18.9081 14.4678 20.0197 12 20.0197C10.4555 20.0197 8.95608 19.5798 7.66392 18.7476C7.44633 18.6074 7.15617 18.6702 7.01602 18.8878C6.87586 19.1055 6.93867 19.3956 7.15631 19.5357C8.60016 20.4656 10.2751 20.9571 12 20.9571C14.7563 20.9571 17.3186 19.7157 19.03 17.5512C19.1905 17.3482 19.1561 17.0534 18.953 16.8928ZM6.37303 17.7152L6.36614 17.7073C6.36366 17.7042 6.36117 17.7011 6.35859 17.6981C6.19186 17.5 5.89617 17.4747 5.69813 17.6414C5.50008 17.8082 5.47467 18.1038 5.64145 18.3019L5.646 18.3073L5.64623 18.3071C5.6512 18.3134 5.65636 18.3197 5.6617 18.3259C5.70568 18.3772 5.76027 18.4184 5.82171 18.4466C5.88315 18.4748 5.94997 18.4894 6.01758 18.4893C6.12955 18.4894 6.23783 18.4493 6.32269 18.3762C6.51909 18.2076 6.54164 17.9116 6.37303 17.7152ZM5.8125 0C5.55361 0 5.34375 0.209859 5.34375 0.46875V5.53125H4.49963C4.49967 5.52862 4.5 5.52609 4.5 5.52342V0.46875C4.5 0.209859 4.29014 0 4.03125 0C3.77236 0 3.5625 0.209859 3.5625 0.46875V5.52342C3.5625 5.52605 3.56288 5.52862 3.56288 5.53125H2.71838C2.71842 5.52862 2.71875 5.52609 2.71875 5.52342V0.46875C2.71875 0.209859 2.50889 0 2.25 0C1.99111 0 1.78125 0.209859 1.78125 0.46875V5.52342C1.78125 5.52605 1.78163 5.52862 1.78163 5.53125H0.9375V0.46875C0.9375 0.209859 0.727641 0 0.46875 0C0.209859 0 0 0.209859 0 0.46875V6.1875C0 7.33734 0.697688 8.37511 1.73438 8.8237V22.5938C1.73438 23.3692 2.36522 24 3.14063 24C3.91603 24 4.54688 23.3692 4.54688 22.5938V8.8237C5.58356 8.37511 6.28125 7.33734 6.28125 6.1875V0.46875C6.28125 0.209859 6.07139 0 5.8125 0ZM3.948 8.04469C3.85037 8.0729 3.76455 8.13207 3.70348 8.2133C3.6424 8.29452 3.60937 8.39339 3.60938 8.49502V22.5938C3.60938 22.8522 3.39909 23.0625 3.14063 23.0625C2.88216 23.0625 2.67188 22.8522 2.67188 22.5938V8.49502C2.67188 8.39339 2.63885 8.29452 2.57777 8.2133C2.5167 8.13207 2.43088 8.0729 2.33325 8.04469C1.6028 7.83361 1.06852 7.20661 0.958688 6.46875H5.32252C5.21273 7.20661 4.67845 7.83361 3.948 8.04469Z" fill="#FC4102"/>
</g>
<defs>
<clipPath id="clip0_6304_41">
<rect width="24" height="24" fill="white"/>
</clipPath>
</defs>
</svg>
