<svg width="24" height="24" viewBox="0 0 24 24" fill="none" xmlns="http://www.w3.org/2000/svg">
<g clip-path="url(#clip0_6304_58)">
<path d="M21.8906 13.383H20.0976L23.8963 4.51938C24.0493 4.16247 23.8839 3.74908 23.527 3.59613C23.1701 3.44317 22.7567 3.6085 22.6037 3.96541L18.5676 13.383H5.43239L1.39627 3.96541C1.24331 3.6085 0.830016 3.44308 0.473016 3.59613C0.116109 3.74908 -0.0492187 4.16242 0.103734 4.51938L3.90244 13.383H2.10938C0.946266 13.383 0 14.3293 0 15.4924V19.7111C0 20.8743 0.946266 21.8205 2.10938 21.8205H2.85938V22.5705C2.85938 22.9588 3.17419 23.2736 3.5625 23.2736C3.95081 23.2736 4.26562 22.9588 4.26562 22.5705V21.8205H19.7344V22.5705C19.7344 22.9588 20.0492 23.2736 20.4375 23.2736C20.8258 23.2736 21.1406 22.9588 21.1406 22.5705V21.8205H21.8906C23.0537 21.8205 24 20.8743 24 19.7111V15.4924C24 14.3293 23.0537 13.383 21.8906 13.383ZM22.5938 19.7111C22.5938 20.0988 22.2783 20.4143 21.8906 20.4143H2.10938C1.72167 20.4143 1.40625 20.0988 1.40625 19.7111V15.4924C1.40625 15.1047 1.72167 14.7893 2.10938 14.7893H21.8906C22.2783 14.7893 22.5938 15.1047 22.5938 15.4924V19.7111Z" fill="#FC4102"/>
<path d="M10.5116 9.78267C10.237 10.0573 10.237 10.5024 10.5116 10.777C10.7861 11.0516 11.2313 11.0516 11.5059 10.777C11.5831 10.6998 11.7501 10.5703 12.0003 10.5703C12.2505 10.5703 12.4174 10.6998 12.4946 10.777C12.7692 11.0516 13.2144 11.0517 13.489 10.777C13.7636 10.5024 13.7636 10.0573 13.489 9.78267C13.2579 9.55167 12.7573 9.16406 12.0003 9.16406C11.2432 9.16406 10.7426 9.55167 10.5116 9.78267ZM5.5364 4.81336C7.26374 3.0848 9.55931 2.13281 12.0003 2.13281C14.4412 2.13281 16.7368 3.0848 18.4642 4.81336C18.7385 5.08795 19.1837 5.08833 19.4585 4.81373C19.7332 4.53928 19.7333 4.09406 19.4589 3.81938C17.4659 1.82494 14.8171 0.726562 12.0003 0.726562C9.18346 0.726562 6.53465 1.82494 4.54171 3.81933C4.26721 4.09402 4.26735 4.53919 4.54209 4.81369C4.81673 5.08819 5.26199 5.088 5.5364 4.81336Z" fill="#FC4102"/>
<path d="M17.4669 6.80161C17.7416 6.5272 17.7418 6.08198 17.4674 5.80725C16.0062 4.34461 14.0641 3.53906 11.9987 3.53906C9.9332 3.53906 7.99103 4.34461 6.52989 5.80725C6.25548 6.08198 6.25567 6.52716 6.5304 6.80161C6.80514 7.07606 7.25036 7.07583 7.52476 6.80109C8.72022 5.60437 10.3091 4.94531 11.9986 4.94531C13.6881 4.94531 15.277 5.60437 16.4725 6.80109C16.7468 7.07569 17.1919 7.07625 17.4669 6.80161Z" fill="#FC4102"/>
<path d="M15.4802 8.78888C15.7548 8.51428 15.7548 8.06911 15.4802 7.79452C14.5497 6.864 13.3142 6.35156 12.0013 6.35156C10.6884 6.35156 9.45282 6.864 8.52235 7.79452C8.24776 8.06911 8.24776 8.51428 8.52235 8.78888C8.7969 9.06347 9.24212 9.06352 9.51671 8.78888C10.1816 8.124 11.064 7.75781 12.0013 7.75781C12.9386 7.75781 13.821 8.124 14.4859 8.78888C14.7604 9.06347 15.2056 9.06347 15.4802 8.78888ZM14.8138 16.1953C14.4255 16.1953 14.1106 16.5101 14.1106 16.8984V18.3047C14.1106 18.693 14.4255 19.0078 14.8138 19.0078C15.2021 19.0078 15.5169 18.693 15.5169 18.3047V16.8984C15.5169 16.5101 15.2021 16.1953 14.8138 16.1953ZM17.6263 16.1953C17.238 16.1953 16.9231 16.5101 16.9231 16.8984V18.3047C16.9231 18.693 17.238 19.0078 17.6263 19.0078C18.0146 19.0078 18.3294 18.693 18.3294 18.3047V16.8984C18.3294 16.5101 18.0146 16.1953 17.6263 16.1953ZM20.4388 16.1953C20.0505 16.1953 19.7356 16.5101 19.7356 16.8984V18.3047C19.7356 18.693 20.0505 19.0078 20.4388 19.0078C20.8271 19.0078 21.1419 18.693 21.1419 18.3047V16.8984C21.1419 16.5101 20.8271 16.1953 20.4388 16.1953Z" fill="#FC4102"/>
</g>
<defs>
<clipPath id="clip0_6304_58">
<rect width="24" height="24" fill="white"/>
</clipPath>
</defs>
</svg>
